<svg id="Layer_2" data-name="Layer 2" xmlns="http://www.w3.org/2000/svg" viewBox="0 0 648.5 648"><title>livewhalesvg</title><path d="M649,236.5V535c0,103.5-112.5,112.5-112.5,112.5h-421c-116,0-115-108-115-108v-179c0-90,97-91,97-91s354-1,375-1S541,257.5,541,203s-60.5-60.5-60.5-60.5c-65,0-63,77-63,77-27-78,51-109,51-109-13-101,45-111,45-111-41,37-17,129,50,140C648.51,153.46,649,236.5,649,236.5Z" transform="translate(-0.5 0.5)" style="fill:#7694db"/><circle cx="126" cy="402" r="33" style="fill:#d9e1f4"/><path d="M454.5,647.5h-339c-116,0-115-108-115-108V417s3,116.47,115,116.47h223S454.5,528.5,454.5,647.5Z" transform="translate(-0.5 0.5)" style="fill:#d9e1f4"/></svg>